<svg width="894" height="737" viewBox="0 0 894 737" fill="none" xmlns="http://www.w3.org/2000/svg">
<g id="scene">
<g id="background">
<path id="Vector" d="M168.5 570.5C168.5 570.5 501 293 692.5 570.5Z" fill="#F2F2F2"/>
<path id="Vector_2" d="M714.117 736.75C799.169 736.75 868.117 726.005 868.117 712.75C868.117 699.495 799.169 688.75 714.117 688.75C629.065 688.75 560.117 699.495 560.117 712.75C560.117 726.005 629.065 736.75 714.117 736.75Z" fill="#F2F2F2"/>
<path id="Vector_3" d="M739.117 727.75C824.169 727.75 893.117 717.005 893.117 703.75C893.117 690.495 824.169 679.75 739.117 679.75C654.065 679.75 585.117 690.495 585.117 703.75C585.117 717.005 654.065 727.75 739.117 727.75Z" stroke="#3F3D56" stroke-miterlimit="10"/>
<path id="Vector_4" d="M804.605 455.45C806.866 456.272 809.286 456.557 811.675 456.284C814.065 456.011 816.358 455.186 818.374 453.876C820.391 452.565 822.075 450.804 823.295 448.731C824.514 446.658 825.236 444.331 825.403 441.931C825.569 439.532 825.176 437.127 824.255 434.906C823.333 432.684 821.908 430.707 820.093 429.13C818.277 427.554 816.119 426.42 813.791 425.819C811.462 425.219 809.026 425.167 806.673 425.668L807.062 433.661L803.281 426.811C799.569 428.555 796.702 431.701 795.309 435.558C794.815 436.909 794.514 438.323 794.416 439.758C794.177 443.126 795.043 446.48 796.882 449.311C798.72 452.143 801.432 454.298 804.605 455.45V455.45Z" fill="#57B894"/>
<path id="Vector_5" d="M823.316 548.152C821.982 541.354 827.766 535.328 833.479 531.411C839.193 527.494 845.869 523.645 847.818 516.998C850.62 507.445 842.274 498.696 835.779 491.151C830.96 485.552 826.821 479.401 823.45 472.828C821.985 470.246 820.986 467.426 820.501 464.497C819.989 460.262 821.35 456.048 822.72 452.009C827.286 438.553 832.168 425.21 837.366 411.979" stroke="#3F3D56" stroke-miterlimit="10"/>
<path id="Vector_6" d="M805.245 453.392C807.505 454.214 809.925 454.499 812.315 454.226C814.704 453.953 816.997 453.129 819.014 451.818C821.03 450.507 822.715 448.746 823.934 446.673C825.154 444.601 825.875 442.273 826.042 439.874C826.209 437.474 825.816 435.069 824.894 432.848C823.973 430.627 822.548 428.65 820.732 427.073C818.916 425.496 816.759 424.362 814.43 423.762C812.101 423.161 809.665 423.109 807.313 423.61L807.702 431.603L803.92 424.753C800.209 426.497 797.342 429.643 795.949 433.5C795.454 434.851 795.153 436.265 795.056 437.7C794.817 441.068 795.682 444.422 797.521 447.254C799.36 450.085 802.071 452.24 805.245 453.392V453.392Z" stroke="#3F3D56" stroke-miterlimit="10"/>
<path id="Vector_7" d="M821.418 409.219C822.305 406.771 823.794 404.587 825.747 402.866C827.701 401.145 830.056 399.943 832.595 399.372L833.874 406.97L836.244 398.99C839.536 399.039 842.726 400.132 845.356 402.112C847.985 404.093 849.917 406.857 850.872 410.007C851.828 413.157 851.758 416.529 850.672 419.637C849.586 422.744 847.541 425.426 844.832 427.295C842.122 429.164 838.889 430.124 835.599 430.036C832.308 429.948 829.131 428.817 826.525 426.805C823.92 424.794 822.021 422.006 821.103 418.845C820.185 415.684 820.296 412.313 821.418 409.219H821.418Z" fill="#57B894"/>
<path id="Vector_8" d="M822.271 406.475C823.158 404.028 824.647 401.843 826.6 400.122C828.553 398.401 830.908 397.2 833.448 396.628L834.727 404.226L837.097 396.246C840.388 396.295 843.579 397.388 846.208 399.369C848.837 401.349 850.769 404.114 851.725 407.264C852.681 410.413 852.61 413.785 851.525 416.893C850.439 420 848.394 422.682 845.684 424.552C842.975 426.421 839.742 427.381 836.451 427.293C833.161 427.205 829.984 426.073 827.378 424.061C824.773 422.05 822.874 419.262 821.956 416.101C821.038 412.94 821.148 409.569 822.271 406.475V406.475Z" stroke="#3F3D56" stroke-miterlimit="10"/>
<path id="Vector_9" d="M833.053 491.305C836.638 492.605 840.575 492.541 844.115 491.125C847.656 489.708 850.551 487.039 852.249 483.625C853.948 480.211 854.331 476.292 853.325 472.613C852.319 468.935 849.995 465.756 846.796 463.681L844.975 469.814L843.683 462.126C843.67 462.12 843.657 462.115 843.643 462.111C841.727 461.416 839.691 461.105 837.654 461.196C835.617 461.287 833.618 461.778 831.771 462.642C829.924 463.506 828.265 464.725 826.889 466.23C825.513 467.735 824.447 469.496 823.751 471.413C823.056 473.33 822.745 475.365 822.836 477.402C822.927 479.439 823.419 481.438 824.282 483.285C825.146 485.133 826.365 486.791 827.87 488.167C829.375 489.544 831.136 490.61 833.053 491.305V491.305Z" fill="#57B894"/>
<path id="Vector_10" d="M833.792 488.526C837.376 489.826 841.314 489.762 844.854 488.346C848.394 486.929 851.29 484.26 852.988 480.846C854.687 477.432 855.069 473.512 854.064 469.834C853.058 466.156 850.734 462.977 847.535 460.902L845.713 467.035L844.422 459.347C844.409 459.341 844.396 459.336 844.382 459.332C840.511 457.928 836.24 458.119 832.51 459.863C828.779 461.607 825.894 464.762 824.49 468.634C823.086 472.505 823.277 476.776 825.021 480.506C826.766 484.237 829.92 487.122 833.792 488.526V488.526Z" stroke="#3F3D56" stroke-miterlimit="10"/>
<path id="Vector_11" d="M816.887 517.093C817.503 520.6 819.306 523.788 821.995 526.124C824.683 528.459 828.092 529.799 831.651 529.918C835.209 530.038 838.701 528.931 841.54 526.782C844.379 524.633 846.393 521.573 847.244 518.115C848.095 514.658 847.731 511.013 846.213 507.792C844.696 504.571 842.117 501.969 838.909 500.424C835.701 498.879 832.059 498.484 828.594 499.304C825.13 500.125 822.053 502.113 819.879 504.933L826.798 515.347L817.344 509.82C816.611 512.172 816.454 514.667 816.887 517.093V517.093Z" fill="#57B894"/>
<path id="Vector_12" d="M817.526 515.035C818.143 518.542 819.946 521.731 822.634 524.066C825.322 526.401 828.731 527.741 832.29 527.861C835.849 527.98 839.34 526.873 842.179 524.724C845.019 522.575 847.032 519.515 847.883 516.058C848.734 512.6 848.37 508.955 846.853 505.734C845.335 502.513 842.756 499.912 839.548 498.366C836.34 496.821 832.699 496.426 829.234 497.247C825.769 498.068 822.692 500.055 820.519 502.875L827.437 513.289L817.984 507.762C817.251 510.115 817.094 512.609 817.526 515.035V515.035Z" stroke="#3F3D56" stroke-miterlimit="10"/>
<path id="Vector_13" d="M801.757 557.359C801.757 557.359 815.46 551.989 819.589 549.048C823.719 546.107 840.668 542.596 841.693 547.312C842.717 552.028 862.286 570.769 846.815 570.894C831.344 571.018 810.868 573.432 806.746 570.921C802.625 568.41 801.757 557.359 801.757 557.359Z" fill="#656380"/>
<path id="Vector_14" opacity="0.2" d="M847.091 569.252C831.62 569.377 811.144 571.79 807.022 569.279C803.883 567.367 802.633 560.506 802.214 557.341C801.924 557.353 801.757 557.359 801.757 557.359C801.757 557.359 802.625 568.41 806.746 570.921C810.868 573.432 831.344 571.018 846.815 570.894C851.281 570.858 852.823 569.269 852.739 566.915C852.118 568.337 850.415 569.225 847.091 569.252Z" fill="black"/>
<path id="Vector_15" d="M861 571.5H0" stroke="#3F3D56" stroke-miterlimit="10"/>
<path id="Vector_16" d="M193.5 360.5C199.575 360.5 204.5 355.575 204.5 349.5C204.5 343.425 199.575 338.5 193.5 338.5C187.425 338.5 182.5 343.425 182.5 349.5C182.5 355.575 187.425 360.5 193.5 360.5Z" fill="#F2F2F2"/>
<path id="Vector_17" d="M196.5 344.5L310.5 249.5L425.5 184.5L539.5 121.5L653.5 11.5" stroke="#3F3D56" stroke-miterlimit="10"/>
<path id="Vector_18" d="M307.5 265.5C313.575 265.5 318.5 260.575 318.5 254.5C318.5 248.425 313.575 243.5 307.5 243.5C301.425 243.5 296.5 248.425 296.5 254.5C296.5 260.575 301.425 265.5 307.5 265.5Z" fill="#F2F2F2"/>
<path id="Vector_19" d="M422.5 200.5C428.575 200.5 433.5 195.575 433.5 189.5C433.5 183.425 428.575 178.5 422.5 178.5C416.425 178.5 411.5 183.425 411.5 189.5C411.5 195.575 416.425 200.5 422.5 200.5Z" fill="#F2F2F2"/>
<path id="Vector_20" d="M536.5 137.5C542.575 137.5 547.5 132.575 547.5 126.5C547.5 120.425 542.575 115.5 536.5 115.5C530.425 115.5 525.5 120.425 525.5 126.5C525.5 132.575 530.425 137.5 536.5 137.5Z" fill="#F2F2F2"/>
<path id="Vector_21" d="M650.5 27.5C656.575 27.5 661.5 22.5751 661.5 16.5C661.5 10.4249 656.575 5.5 650.5 5.5C644.425 5.5 639.5 10.4249 639.5 16.5C639.5 22.5751 644.425 27.5 650.5 27.5Z" fill="#F2F2F2"/>
<path id="Vector_22" d="M196.5 355.5C202.575 355.5 207.5 350.575 207.5 344.5C207.5 338.425 202.575 333.5 196.5 333.5C190.425 333.5 185.5 338.425 185.5 344.5C185.5 350.575 190.425 355.5 196.5 355.5Z" stroke="#3F3D56" stroke-miterlimit="10"/>
<path id="Vector_23" d="M310.5 260.5C316.575 260.5 321.5 255.575 321.5 249.5C321.5 243.425 316.575 238.5 310.5 238.5C304.425 238.5 299.5 243.425 299.5 249.5C299.5 255.575 304.425 260.5 310.5 260.5Z" stroke="#3F3D56" stroke-miterlimit="10"/>
<path id="Vector_24" d="M425.5 195.5C431.575 195.5 436.5 190.575 436.5 184.5C436.5 178.425 431.575 173.5 425.5 173.5C419.425 173.5 414.5 178.425 414.5 184.5C414.5 190.575 419.425 195.5 425.5 195.5Z" stroke="#3F3D56" stroke-miterlimit="10"/>
<path id="Vector_25" d="M539.5 132.5C545.575 132.5 550.5 127.575 550.5 121.5C550.5 115.425 545.575 110.5 539.5 110.5C533.425 110.5 528.5 115.425 528.5 121.5C528.5 127.575 533.425 132.5 539.5 132.5Z" stroke="#3F3D56" stroke-miterlimit="10"/>
<path id="Vector_26" d="M653.5 22.5C659.575 22.5 664.5 17.5751 664.5 11.5C664.5 5.42487 659.575 0.5 653.5 0.5C647.425 0.5 642.5 5.42487 642.5 11.5C642.5 17.5751 647.425 22.5 653.5 22.5Z" stroke="#3F3D56" stroke-miterlimit="10"/>
</g>
<g id="chart">
<path id="Vector_27" d="M207.149 413H170.851C164.306 413 159 418.306 159 424.851V559.149C159 565.694 164.306 571 170.851 571H207.149C213.694 571 219 565.694 219 559.149V424.851C219 418.306 213.694 413 207.149 413Z" fill="#00D563"/>
<path id="Vector_28" d="M321.149 318H284.851C278.306 318 273 323.306 273 329.851V559.149C273 565.694 278.306 571 284.851 571H321.149C327.694 571 333 565.694 333 559.149V329.851C333 323.306 327.694 318 321.149 318Z" fill="#00D563"/>
<path id="Vector_29" d="M435.149 252H398.851C392.306 252 387 257.306 387 263.851V559.149C387 565.694 392.306 571 398.851 571H435.149C441.694 571 447 565.694 447 559.149V263.851C447 257.306 441.694 252 435.149 252Z" fill="#00D563"/>
<path id="Vector_30" d="M549.149 189H512.851C506.306 189 501 194.306 501 200.851V559.149C501 565.694 506.306 571 512.851 571H549.149C555.694 571 561 565.694 561 559.149V200.851C561 194.306 555.694 189 549.149 189Z" fill="#00D563"/>
<path id="Vector_31" d="M663.149 79H626.851C620.306 79 615 84.3057 615 90.8505V559.149C615 565.694 620.306 571 626.851 571H663.149C669.694 571 675 565.694 675 559.149V90.8505C675 84.3057 669.694 79 663.149 79Z" fill="#00D563"/>
<path id="Vector_32" d="M215.149 405H178.851C172.306 405 167 410.306 167 416.851V551.149C167 557.694 172.306 563 178.851 563H215.149C221.694 563 227 557.694 227 551.149V416.851C227 410.306 221.694 405 215.149 405Z" stroke="#3F3D56" stroke-miterlimit="10"/>
<path id="Vector_33" d="M329.149 310H292.851C286.306 310 281 315.306 281 321.851V551.149C281 557.694 286.306 563 292.851 563H329.149C335.694 563 341 557.694 341 551.149V321.851C341 315.306 335.694 310 329.149 310Z" stroke="#3F3D56" stroke-miterlimit="10"/>
<path id="Vector_34" d="M443.149 244H406.851C400.306 244 395 249.306 395 255.851V551.149C395 557.694 400.306 563 406.851 563H443.149C449.694 563 455 557.694 455 551.149V255.851C455 249.306 449.694 244 443.149 244Z" stroke="#3F3D56" stroke-miterlimit="10"/>
<path id="Vector_35" d="M557.149 181H520.851C514.306 181 509 186.306 509 192.851V551.149C509 557.694 514.306 563 520.851 563H557.149C563.694 563 569 557.694 569 551.149V192.851C569 186.306 563.694 181 557.149 181Z" stroke="#3F3D56" stroke-miterlimit="10"/>
<path id="Vector_36" d="M671.149 71H634.851C628.306 71 623 76.3057 623 82.8505V551.149C623 557.694 628.306 563 634.851 563H671.149C677.694 563 683 557.694 683 551.149V82.8505C683 76.3057 677.694 71 671.149 71Z" stroke="#3F3D56" stroke-miterlimit="10"/>
</g>
<g id="man">
<path id="Vector_37" d="M806.703 475.576C806.703 475.576 816.114 509.455 804.194 514.474C792.273 519.493 796.038 476.831 796.038 476.831L806.703 475.576Z" fill="#A0616A"/>
<path id="Vector_38" d="M721.378 692.653C721.378 692.653 712.595 692.026 709.458 693.908C708.518 694.457 707.472 694.797 706.389 694.906C705.306 695.014 704.213 694.888 703.184 694.535C703.184 694.535 689.381 693.28 694.4 700.182C699.419 707.083 704.439 709.592 704.439 712.729C704.439 715.866 725.142 715.866 725.77 712.729C726.397 709.592 727.025 693.28 725.77 692.653C724.515 692.026 721.378 692.653 721.378 692.653Z" fill="#575A89"/>
<path id="Vector_39" d="M744.592 692.653C744.592 692.653 753.375 692.026 756.512 693.908C757.451 694.457 758.498 694.797 759.581 694.906C760.663 695.014 761.756 694.888 762.786 694.535C762.786 694.535 776.588 693.28 771.569 700.182C766.55 707.083 761.531 709.593 761.531 712.729C761.531 715.866 740.827 715.866 740.2 712.729C739.572 709.593 738.945 693.28 740.2 692.653C741.455 692.026 744.592 692.653 744.592 692.653Z" fill="#575A89"/>
<path id="Vector_40" d="M695.655 468.675C695.655 468.675 691.263 567.802 693.773 572.821C696.283 577.841 705.066 662.538 703.811 667.557C702.556 672.577 696.283 693.28 703.811 696.417C711.34 699.554 727.652 696.417 727.652 696.417C727.652 696.417 732.044 671.322 730.162 658.147C728.279 644.971 727.652 589.761 727.652 589.761L740.2 532.041L744.592 586.624C744.592 586.624 745.846 661.283 737.063 676.341C728.279 691.398 740.2 697.672 740.2 697.672C740.2 697.672 764.041 700.809 766.55 700.182C769.06 699.554 764.668 675.086 766.55 664.42C768.432 653.755 772.824 594.153 776.588 579.723C780.353 565.293 801.684 484.987 785.999 468.675C770.315 452.363 695.655 468.675 695.655 468.675Z" fill="#3F3D56"/>
<path id="Vector_41" d="M741.455 268.537C753.582 268.537 763.413 258.706 763.413 246.579C763.413 234.451 753.582 224.62 741.455 224.62C729.327 224.62 719.496 234.451 719.496 246.579C719.496 258.706 729.327 268.537 741.455 268.537Z" fill="#A0616A"/>
<path id="Vector_42" d="M725.142 256.617C725.142 256.617 728.907 286.732 727.025 287.359C725.142 287.986 760.276 287.359 760.276 287.359C760.276 287.359 753.375 269.165 760.276 254.735L725.142 256.617Z" fill="#A0616A"/>
<path id="Vector_43" d="M725.142 281.085C725.142 281.085 740.434 266.028 758.511 281.085L759.681 285.573L750.238 285.477H725.142V281.085Z" fill="#F2F2F2"/>
<path id="Vector_44" d="M799.802 473.694C798.353 473.982 794.802 474.572 790.171 475.275C774.757 477.602 747.44 481.128 746.474 478.713C745.219 475.576 740.827 464.283 737.69 469.302C734.553 474.321 736.435 478.713 723.26 479.34C714.295 479.767 701.264 478.449 694.049 476.379C690.661 475.407 688.553 474.271 688.754 473.066C689.381 469.302 696.282 397.78 696.282 390.878C696.282 383.977 698.792 350.725 698.792 350.725L680.761 315.246L679.343 312.455C679.343 312.455 681.225 305.553 686.872 304.298C692.518 303.044 719.496 287.359 719.496 287.359C719.496 287.359 725.142 278.576 735.808 279.203C746.474 279.83 748.983 275.439 763.413 287.359C763.413 287.359 780.98 294.888 787.254 298.652C793.528 302.416 800.429 302.416 801.057 308.69C801.182 309.951 800.498 312.379 799.325 315.447C795.027 326.69 784.167 346.585 782.467 349.684C782.316 349.954 782.235 350.098 782.235 350.098C782.235 350.098 781.909 361.378 782.254 374.585V374.616C782.593 387.283 783.546 401.72 785.999 409.7C791.018 426.012 806.076 472.439 799.802 473.694Z" fill="#575A89"/>
<path id="Vector_45" d="M769.961 237.565C769.522 235.566 768.677 233.678 767.479 232.019C767.002 227.43 765.471 223.014 763.006 219.114C762.041 217.287 760.67 215.705 758.999 214.489C757.085 213.387 754.901 212.842 752.694 212.917C752.294 212.91 751.574 213.032 750.925 213.061C750.511 212.933 750.092 212.818 749.673 212.71C749.428 212.166 748.942 210.578 748.807 210.685L746.977 212.139C746.204 212.005 745.426 211.9 744.646 211.817C744.362 211.006 744.078 210.196 743.793 209.385C743.332 210.11 742.928 210.87 742.585 211.657C741.808 211.619 741.03 211.606 740.253 211.617L738.698 210.123C738.606 210.54 738.395 210.921 738.09 211.219C737.786 211.518 737.401 211.721 736.982 211.804C736.267 211.877 735.554 211.973 734.844 212.087C734.786 212.087 734.727 212.087 734.671 212.086C730.841 211.99 726.721 211.819 723.518 213.921C722.02 214.95 720.8 216.334 719.968 217.95C719.576 218.217 719.183 218.481 718.802 218.764C717.518 219.64 716.404 220.744 715.517 222.02C714.872 223.121 714.383 224.307 714.064 225.542C712.842 229.261 712.276 233.163 712.391 237.076C712.522 241.015 714.008 244.788 716.599 247.758C718.241 249.523 720.329 250.826 721.973 252.589C725.36 256.218 725.994 261.279 728.891 265.119C731.954 269.181 737.546 271.853 742.456 272.62C745.408 273.064 748.42 272.922 751.317 272.199C754.213 271.477 756.939 270.189 759.337 268.41C760.487 267.608 761.465 266.583 762.211 265.396C763.915 262.448 763.193 258.743 763.825 255.397C765.012 249.126 770.997 243.863 769.961 237.565Z" fill="#3F3D56"/>
<path id="Vector_46" d="M686.244 477.458C686.244 477.458 695.655 511.337 683.735 516.356C671.814 521.376 675.579 478.713 675.579 478.713L686.244 477.458Z" fill="#A0616A"/>
<path id="Vector_47" opacity="0.1" d="M697.531 400.578C697.531 400.578 693.415 461.66 694.049 476.379C690.661 475.407 688.553 474.271 688.754 473.066C689.381 469.302 696.283 397.78 696.283 390.878C696.283 383.977 698.792 350.725 698.792 350.725L680.761 315.246C681.049 313.49 681.225 312.455 681.225 312.455L690.322 331.59L703.184 335.041L697.531 400.578Z" fill="black"/>
<path id="Vector_48" d="M683.735 308.69L679.343 312.455C679.343 312.455 673.696 345.706 674.324 353.862C674.951 362.018 661.149 485.614 671.814 485.614C682.48 485.614 694.4 483.732 692.518 479.34C690.636 474.949 695.651 400.578 695.651 400.578L701.302 335.041L683.735 308.69Z" fill="#575A89"/>
<path id="Vector_49" opacity="0.1" d="M799.325 315.447C795.027 326.69 784.167 346.585 782.467 349.684C782.517 341.66 782.549 335.982 782.549 335.982L795.724 309.004L798.547 306.808C798.547 306.808 798.848 310.127 799.325 315.447Z" fill="black"/>
<path id="Vector_50" opacity="0.1" d="M799.802 473.694C798.353 473.982 794.802 474.572 790.171 475.275C787.769 457.507 781.344 406.413 781.752 401.6C781.953 399.229 782.122 387.509 782.254 374.616C782.593 387.283 783.546 401.72 785.999 409.7C791.018 426.012 806.076 472.439 799.802 473.694Z" fill="black"/>
<path id="Vector_51" d="M791.646 304.298L801.057 306.808C801.057 306.808 807.331 376.448 807.958 388.369C808.585 400.289 816.114 473.694 814.859 476.831C813.604 479.968 794.155 484.359 793.528 481.223C792.901 478.086 783.78 407.301 784.262 401.599C784.745 395.897 781.608 336.923 781.608 336.923L791.646 304.298Z" fill="#575A89"/>
</g>
</g>
</svg>
